<svg width="23" height="23" viewBox="0 0 23 23" fill="none" xmlns="http://www.w3.org/2000/svg">
<path opacity="0.3" d="M21.9343 20.9023L16.7351 15.7031C16.6062 15.6172 16.4773 15.5312 16.3484 15.5312H15.7898C17.1218 13.9844 17.9812 11.9219 17.9812 9.6875C17.9812 4.78906 13.9421 0.75 9.0437 0.75C4.10229 0.75 0.106201 4.78906 0.106201 9.6875C0.106201 14.6289 4.10229 18.625 9.0437 18.625C11.2781 18.625 13.2976 17.8086 14.8875 16.4766V17.0352C14.8875 17.1641 14.9304 17.293 15.0164 17.4219L20.2156 22.6211C20.4304 22.8359 20.7742 22.8359 20.946 22.6211L21.9343 21.6328C22.1492 21.4609 22.1492 21.1172 21.9343 20.9023ZM9.0437 16.5625C5.21948 16.5625 2.1687 13.5117 2.1687 9.6875C2.1687 5.90625 5.21948 2.8125 9.0437 2.8125C12.825 2.8125 15.9187 5.90625 15.9187 9.6875C15.9187 13.5117 12.825 16.5625 9.0437 16.5625Z" fill="black"/>
</svg>
